G04 #@! TF.FileFunction,Copper,L1,Top,Signal*
%FSLAX46Y46*%
G04 Gerber Fmt 4.6, Leading zero omitted, Abs format (unit mm)*
G04 Created by KiCad (PCBNEW 4.0.7) date 04/13/18 15:40:30*
%MOMM*%
%LPD*%
G01*
G04 APERTURE LIST*
%ADD10C,0.100000*%
%ADD11C,0.300000*%
%ADD12R,2.000000X1.600000*%
%ADD13R,1.900000X1.300000*%
%ADD14R,1.800000X1.100000*%
%ADD15R,1.700000X1.700000*%
%ADD16C,0.250000*%
G04 APERTURE END LIST*
D10*
D11*
X145948572Y-128386000D02*
X145777143Y-128300286D01*
X145520000Y-128300286D01*
X145262857Y-128386000D01*
X145091429Y-128557429D01*
X145005714Y-128728857D01*
X144920000Y-129071714D01*
X144920000Y-129328857D01*
X145005714Y-129671714D01*
X145091429Y-129843143D01*
X145262857Y-130014571D01*
X145520000Y-130100286D01*
X145691429Y-130100286D01*
X145948572Y-130014571D01*
X146034286Y-129928857D01*
X146034286Y-129328857D01*
X145691429Y-129328857D01*
X146805714Y-130100286D02*
X146805714Y-128300286D01*
X147834286Y-130100286D01*
X147834286Y-128300286D01*
X148691428Y-130100286D02*
X148691428Y-128300286D01*
X149120000Y-128300286D01*
X149377143Y-128386000D01*
X149548571Y-128557429D01*
X149634286Y-128728857D01*
X149720000Y-129071714D01*
X149720000Y-129328857D01*
X149634286Y-129671714D01*
X149548571Y-129843143D01*
X149377143Y-130014571D01*
X149120000Y-130100286D01*
X148691428Y-130100286D01*
X137988857Y-122204286D02*
X139188857Y-124004286D01*
X139188857Y-122204286D02*
X137988857Y-124004286D01*
X139788857Y-122375714D02*
X139874571Y-122290000D01*
X140046000Y-122204286D01*
X140474571Y-122204286D01*
X140646000Y-122290000D01*
X140731714Y-122375714D01*
X140817429Y-122547143D01*
X140817429Y-122718571D01*
X140731714Y-122975714D01*
X139703143Y-124004286D01*
X140817429Y-124004286D01*
X137988857Y-113822286D02*
X139188857Y-115622286D01*
X139188857Y-113822286D02*
X137988857Y-115622286D01*
X140817429Y-115622286D02*
X139788857Y-115622286D01*
X140303143Y-115622286D02*
X140303143Y-113822286D01*
X140131714Y-114079429D01*
X139960286Y-114250857D01*
X139788857Y-114336571D01*
X138242857Y-105948286D02*
X139442857Y-107748286D01*
X139442857Y-105948286D02*
X138242857Y-107748286D01*
X140042857Y-106119714D02*
X140128571Y-106034000D01*
X140300000Y-105948286D01*
X140728571Y-105948286D01*
X140900000Y-106034000D01*
X140985714Y-106119714D01*
X141071429Y-106291143D01*
X141071429Y-106462571D01*
X140985714Y-106719714D01*
X139957143Y-107748286D01*
X141071429Y-107748286D01*
X138496857Y-99090286D02*
X139696857Y-100890286D01*
X139696857Y-99090286D02*
X138496857Y-100890286D01*
X141325429Y-100890286D02*
X140296857Y-100890286D01*
X140811143Y-100890286D02*
X140811143Y-99090286D01*
X140639714Y-99347429D01*
X140468286Y-99518857D01*
X140296857Y-99604571D01*
X173331429Y-107494286D02*
X172302857Y-107494286D01*
X172817143Y-107494286D02*
X172817143Y-105694286D01*
X172645714Y-105951429D01*
X172474286Y-106122857D01*
X172302857Y-106208571D01*
X174017143Y-105865714D02*
X174102857Y-105780000D01*
X174274286Y-105694286D01*
X174702857Y-105694286D01*
X174874286Y-105780000D01*
X174960000Y-105865714D01*
X175045715Y-106037143D01*
X175045715Y-106208571D01*
X174960000Y-106465714D01*
X173931429Y-107494286D01*
X175045715Y-107494286D01*
X175817143Y-106294286D02*
X175817143Y-108094286D01*
X175817143Y-106380000D02*
X175988572Y-106294286D01*
X176331429Y-106294286D01*
X176502858Y-106380000D01*
X176588572Y-106465714D01*
X176674286Y-106637143D01*
X176674286Y-107151429D01*
X176588572Y-107322857D01*
X176502858Y-107408571D01*
X176331429Y-107494286D01*
X175988572Y-107494286D01*
X175817143Y-107408571D01*
X178045714Y-106551429D02*
X177445714Y-106551429D01*
X177445714Y-107494286D02*
X177445714Y-105694286D01*
X178302857Y-105694286D01*
X163679429Y-104192286D02*
X162650857Y-104192286D01*
X163165143Y-104192286D02*
X163165143Y-102392286D01*
X162993714Y-102649429D01*
X162822286Y-102820857D01*
X162650857Y-102906571D01*
X164793715Y-102392286D02*
X164965143Y-102392286D01*
X165136572Y-102478000D01*
X165222286Y-102563714D01*
X165308000Y-102735143D01*
X165393715Y-103078000D01*
X165393715Y-103506571D01*
X165308000Y-103849429D01*
X165222286Y-104020857D01*
X165136572Y-104106571D01*
X164965143Y-104192286D01*
X164793715Y-104192286D01*
X164622286Y-104106571D01*
X164536572Y-104020857D01*
X164450857Y-103849429D01*
X164365143Y-103506571D01*
X164365143Y-103078000D01*
X164450857Y-102735143D01*
X164536572Y-102563714D01*
X164622286Y-102478000D01*
X164793715Y-102392286D01*
X166165143Y-102992286D02*
X166165143Y-104792286D01*
X166165143Y-103078000D02*
X166336572Y-102992286D01*
X166679429Y-102992286D01*
X166850858Y-103078000D01*
X166936572Y-103163714D01*
X167022286Y-103335143D01*
X167022286Y-103849429D01*
X166936572Y-104020857D01*
X166850858Y-104106571D01*
X166679429Y-104192286D01*
X166336572Y-104192286D01*
X166165143Y-104106571D01*
X168393714Y-103249429D02*
X167793714Y-103249429D01*
X167793714Y-104192286D02*
X167793714Y-102392286D01*
X168650857Y-102392286D01*
X158884857Y-113162857D02*
X158970571Y-113248571D01*
X159056286Y-113505714D01*
X159056286Y-113677143D01*
X158970571Y-113934286D01*
X158799143Y-114105714D01*
X158627714Y-114191429D01*
X158284857Y-114277143D01*
X158027714Y-114277143D01*
X157684857Y-114191429D01*
X157513429Y-114105714D01*
X157342000Y-113934286D01*
X157256286Y-113677143D01*
X157256286Y-113505714D01*
X157342000Y-113248571D01*
X157427714Y-113162857D01*
X159056286Y-112391429D02*
X157256286Y-112391429D01*
X158542000Y-111791429D01*
X157256286Y-111191429D01*
X159056286Y-111191429D01*
X157427714Y-110420000D02*
X157342000Y-110334286D01*
X157256286Y-110162857D01*
X157256286Y-109734286D01*
X157342000Y-109562857D01*
X157427714Y-109477143D01*
X157599143Y-109391428D01*
X157770571Y-109391428D01*
X158027714Y-109477143D01*
X159056286Y-110505714D01*
X159056286Y-109391428D01*
X157256286Y-108277142D02*
X157256286Y-108105714D01*
X157342000Y-107934285D01*
X157427714Y-107848571D01*
X157599143Y-107762857D01*
X157942000Y-107677142D01*
X158370571Y-107677142D01*
X158713429Y-107762857D01*
X158884857Y-107848571D01*
X158970571Y-107934285D01*
X159056286Y-108105714D01*
X159056286Y-108277142D01*
X158970571Y-108448571D01*
X158884857Y-108534285D01*
X158713429Y-108620000D01*
X158370571Y-108705714D01*
X157942000Y-108705714D01*
X157599143Y-108620000D01*
X157427714Y-108534285D01*
X157342000Y-108448571D01*
X157256286Y-108277142D01*
X157256286Y-106562856D02*
X157256286Y-106391428D01*
X157342000Y-106219999D01*
X157427714Y-106134285D01*
X157599143Y-106048571D01*
X157942000Y-105962856D01*
X158370571Y-105962856D01*
X158713429Y-106048571D01*
X158884857Y-106134285D01*
X158970571Y-106219999D01*
X159056286Y-106391428D01*
X159056286Y-106562856D01*
X158970571Y-106734285D01*
X158884857Y-106819999D01*
X158713429Y-106905714D01*
X158370571Y-106991428D01*
X157942000Y-106991428D01*
X157599143Y-106905714D01*
X157427714Y-106819999D01*
X157342000Y-106734285D01*
X157256286Y-106562856D01*
X158884857Y-104162856D02*
X158970571Y-104248570D01*
X159056286Y-104505713D01*
X159056286Y-104677142D01*
X158970571Y-104934285D01*
X158799143Y-105105713D01*
X158627714Y-105191428D01*
X158284857Y-105277142D01*
X158027714Y-105277142D01*
X157684857Y-105191428D01*
X157513429Y-105105713D01*
X157342000Y-104934285D01*
X157256286Y-104677142D01*
X157256286Y-104505713D01*
X157342000Y-104248570D01*
X157427714Y-104162856D01*
X190380857Y-115892000D02*
X190466571Y-115977714D01*
X190552286Y-116234857D01*
X190552286Y-116406286D01*
X190466571Y-116663429D01*
X190295143Y-116834857D01*
X190123714Y-116920572D01*
X189780857Y-117006286D01*
X189523714Y-117006286D01*
X189180857Y-116920572D01*
X189009429Y-116834857D01*
X188838000Y-116663429D01*
X188752286Y-116406286D01*
X188752286Y-116234857D01*
X188838000Y-115977714D01*
X188923714Y-115892000D01*
X190552286Y-115120572D02*
X188752286Y-115120572D01*
X190038000Y-114520572D01*
X188752286Y-113920572D01*
X190552286Y-113920572D01*
X188752286Y-113234857D02*
X188752286Y-112034857D01*
X190552286Y-112806286D01*
X188752286Y-111606285D02*
X190552286Y-111006285D01*
X188752286Y-110406285D01*
X184932857Y-124499714D02*
X184761429Y-124414000D01*
X184675714Y-124328286D01*
X184590000Y-124156857D01*
X184590000Y-124071143D01*
X184675714Y-123899714D01*
X184761429Y-123814000D01*
X184932857Y-123728286D01*
X185275714Y-123728286D01*
X185447143Y-123814000D01*
X185532857Y-123899714D01*
X185618572Y-124071143D01*
X185618572Y-124156857D01*
X185532857Y-124328286D01*
X185447143Y-124414000D01*
X185275714Y-124499714D01*
X184932857Y-124499714D01*
X184761429Y-124585429D01*
X184675714Y-124671143D01*
X184590000Y-124842571D01*
X184590000Y-125185429D01*
X184675714Y-125356857D01*
X184761429Y-125442571D01*
X184932857Y-125528286D01*
X185275714Y-125528286D01*
X185447143Y-125442571D01*
X185532857Y-125356857D01*
X185618572Y-125185429D01*
X185618572Y-124842571D01*
X185532857Y-124671143D01*
X185447143Y-124585429D01*
X185275714Y-124499714D01*
X186390000Y-124328286D02*
X186390000Y-126128286D01*
X186390000Y-124414000D02*
X186561429Y-124328286D01*
X186904286Y-124328286D01*
X187075715Y-124414000D01*
X187161429Y-124499714D01*
X187247143Y-124671143D01*
X187247143Y-125185429D01*
X187161429Y-125356857D01*
X187075715Y-125442571D01*
X186904286Y-125528286D01*
X186561429Y-125528286D01*
X186390000Y-125442571D01*
X188618571Y-124585429D02*
X188018571Y-124585429D01*
X188018571Y-125528286D02*
X188018571Y-123728286D01*
X188875714Y-123728286D01*
X184761429Y-102922286D02*
X183732857Y-102922286D01*
X184247143Y-102922286D02*
X184247143Y-101122286D01*
X184075714Y-101379429D01*
X183904286Y-101550857D01*
X183732857Y-101636571D01*
X185875715Y-101122286D02*
X186047143Y-101122286D01*
X186218572Y-101208000D01*
X186304286Y-101293714D01*
X186390000Y-101465143D01*
X186475715Y-101808000D01*
X186475715Y-102236571D01*
X186390000Y-102579429D01*
X186304286Y-102750857D01*
X186218572Y-102836571D01*
X186047143Y-102922286D01*
X185875715Y-102922286D01*
X185704286Y-102836571D01*
X185618572Y-102750857D01*
X185532857Y-102579429D01*
X185447143Y-102236571D01*
X185447143Y-101808000D01*
X185532857Y-101465143D01*
X185618572Y-101293714D01*
X185704286Y-101208000D01*
X185875715Y-101122286D01*
X187247143Y-101722286D02*
X187247143Y-103522286D01*
X187247143Y-101808000D02*
X187418572Y-101722286D01*
X187761429Y-101722286D01*
X187932858Y-101808000D01*
X188018572Y-101893714D01*
X188104286Y-102065143D01*
X188104286Y-102579429D01*
X188018572Y-102750857D01*
X187932858Y-102836571D01*
X187761429Y-102922286D01*
X187418572Y-102922286D01*
X187247143Y-102836571D01*
X189475714Y-101979429D02*
X188875714Y-101979429D01*
X188875714Y-102922286D02*
X188875714Y-101122286D01*
X189732857Y-101122286D01*
D12*
X160814000Y-100330000D03*
X164814000Y-100330000D03*
X172498000Y-103632000D03*
X176498000Y-103632000D03*
X188246000Y-104902000D03*
X192246000Y-104902000D03*
X188246000Y-121920000D03*
X192246000Y-121920000D03*
D13*
X161214000Y-107028000D03*
X164314000Y-107028000D03*
X161314000Y-112428000D03*
X164314000Y-112428000D03*
D14*
X185674000Y-112592000D03*
X185674000Y-114992000D03*
D15*
X143764000Y-106934000D03*
X143510000Y-114808000D03*
X143256000Y-123190000D03*
X143002000Y-131572000D03*
X143764000Y-99822000D03*
D16*
X160814000Y-100330000D02*
X144272000Y-100330000D01*
X144272000Y-100330000D02*
X143764000Y-99822000D01*
X161214000Y-107028000D02*
X161214000Y-100730000D01*
X161214000Y-100730000D02*
X160814000Y-100330000D01*
X192246000Y-121920000D02*
X192246000Y-125254000D01*
X185928000Y-131572000D02*
X143002000Y-131572000D01*
X192246000Y-125254000D02*
X185928000Y-131572000D01*
X192246000Y-104902000D02*
X192786000Y-104902000D01*
X192786000Y-104902000D02*
X196088000Y-108204000D01*
X196088000Y-118078000D02*
X192246000Y-121920000D01*
X196088000Y-108204000D02*
X196088000Y-118078000D01*
X164814000Y-100330000D02*
X164814000Y-96996000D01*
X164814000Y-96996000D02*
X161544000Y-93726000D01*
X161544000Y-93726000D02*
X141732000Y-93726000D01*
X141732000Y-93726000D02*
X135890000Y-99568000D01*
X135890000Y-99568000D02*
X135890000Y-127762000D01*
X135890000Y-127762000D02*
X139700000Y-131572000D01*
X139700000Y-131572000D02*
X143002000Y-131572000D01*
X176498000Y-103632000D02*
X178308000Y-103632000D01*
X192246000Y-102076000D02*
X192246000Y-104902000D01*
X189738000Y-99568000D02*
X192246000Y-102076000D01*
X182372000Y-99568000D02*
X189738000Y-99568000D01*
X178308000Y-103632000D02*
X182372000Y-99568000D01*
X164814000Y-100330000D02*
X169418000Y-100330000D01*
X176784000Y-100330000D02*
X176784000Y-103346000D01*
X174752000Y-98298000D02*
X176784000Y-100330000D01*
X171450000Y-98298000D02*
X174752000Y-98298000D01*
X169418000Y-100330000D02*
X171450000Y-98298000D01*
X176784000Y-103346000D02*
X176498000Y-103632000D01*
X169102000Y-107028000D02*
X169102000Y-114238000D01*
X153162000Y-106934000D02*
X143764000Y-106934000D01*
X155702000Y-109474000D02*
X153162000Y-106934000D01*
X155702000Y-115316000D02*
X155702000Y-109474000D01*
X158496000Y-118110000D02*
X155702000Y-115316000D01*
X165230000Y-118110000D02*
X158496000Y-118110000D01*
X169102000Y-114238000D02*
X165230000Y-118110000D01*
X164314000Y-107028000D02*
X169102000Y-107028000D01*
X169102000Y-107028000D02*
X172498000Y-103632000D01*
X185674000Y-112592000D02*
X178746000Y-112592000D01*
X150622000Y-114808000D02*
X143510000Y-114808000D01*
X151384000Y-115570000D02*
X150622000Y-114808000D01*
X151384000Y-118110000D02*
X151384000Y-115570000D01*
X155194000Y-121920000D02*
X151384000Y-118110000D01*
X169418000Y-121920000D02*
X155194000Y-121920000D01*
X178746000Y-112592000D02*
X169418000Y-121920000D01*
X185674000Y-112592000D02*
X185674000Y-107474000D01*
X185674000Y-107474000D02*
X188246000Y-104902000D01*
X185674000Y-114992000D02*
X185674000Y-119348000D01*
X185674000Y-119348000D02*
X188246000Y-121920000D01*
X185674000Y-114992000D02*
X180664000Y-114992000D01*
X148844000Y-123190000D02*
X143256000Y-123190000D01*
X151638000Y-125984000D02*
X148844000Y-123190000D01*
X169672000Y-125984000D02*
X151638000Y-125984000D01*
X180664000Y-114992000D02*
X169672000Y-125984000D01*
M02*
